<mxfile host="Electron" agent="Mozilla/5.0 (Windows NT 10.0; Win64; x64) AppleWebKit/537.36 (KHTML, like Gecko) draw.io/24.7.17 Chrome/128.0.6613.36 Electron/32.0.1 Safari/537.36" version="24.7.17">
  <diagram name="Page-1" id="GC30_9xjFJiRFgOWV77Z">
    <mxGraphModel dx="472" dy="827" grid="1" gridSize="10" guides="1" tooltips="1" connect="1" arrows="1" fold="1" page="1" pageScale="1" pageWidth="850" pageHeight="1100" math="0" shadow="0">
      <root>
        <mxCell id="0" />
        <mxCell id="1" parent="0" />
        <mxCell id="EWfqVEN3eDqRPe0bhWaA-8" value="" style="edgeStyle=orthogonalEdgeStyle;rounded=0;orthogonalLoop=1;jettySize=auto;html=1;" edge="1" parent="1" source="EWfqVEN3eDqRPe0bhWaA-1" target="EWfqVEN3eDqRPe0bhWaA-4">
          <mxGeometry relative="1" as="geometry" />
        </mxCell>
        <mxCell id="EWfqVEN3eDqRPe0bhWaA-1" value="Start" style="ellipse;whiteSpace=wrap;html=1;" vertex="1" parent="1">
          <mxGeometry x="40" y="70" width="120" height="80" as="geometry" />
        </mxCell>
        <mxCell id="EWfqVEN3eDqRPe0bhWaA-2" value="Stop" style="ellipse;whiteSpace=wrap;html=1;" vertex="1" parent="1">
          <mxGeometry x="40" y="490" width="120" height="80" as="geometry" />
        </mxCell>
        <mxCell id="EWfqVEN3eDqRPe0bhWaA-12" value="" style="edgeStyle=orthogonalEdgeStyle;rounded=0;orthogonalLoop=1;jettySize=auto;html=1;" edge="1" parent="1" source="EWfqVEN3eDqRPe0bhWaA-3" target="EWfqVEN3eDqRPe0bhWaA-2">
          <mxGeometry relative="1" as="geometry" />
        </mxCell>
        <mxCell id="EWfqVEN3eDqRPe0bhWaA-3" value="output rent" style="shape=parallelogram;perimeter=parallelogramPerimeter;whiteSpace=wrap;html=1;fixedSize=1;" vertex="1" parent="1">
          <mxGeometry x="40" y="390" width="120" height="60" as="geometry" />
        </mxCell>
        <mxCell id="EWfqVEN3eDqRPe0bhWaA-9" value="" style="edgeStyle=orthogonalEdgeStyle;rounded=0;orthogonalLoop=1;jettySize=auto;html=1;" edge="1" parent="1" source="EWfqVEN3eDqRPe0bhWaA-4">
          <mxGeometry relative="1" as="geometry">
            <mxPoint x="100" y="290" as="targetPoint" />
          </mxGeometry>
        </mxCell>
        <mxCell id="EWfqVEN3eDqRPe0bhWaA-4" value="input rent" style="shape=parallelogram;perimeter=parallelogramPerimeter;whiteSpace=wrap;html=1;fixedSize=1;" vertex="1" parent="1">
          <mxGeometry x="40" y="190" width="120" height="60" as="geometry" />
        </mxCell>
        <mxCell id="EWfqVEN3eDqRPe0bhWaA-11" value="" style="edgeStyle=orthogonalEdgeStyle;rounded=0;orthogonalLoop=1;jettySize=auto;html=1;" edge="1" parent="1" source="EWfqVEN3eDqRPe0bhWaA-5" target="EWfqVEN3eDqRPe0bhWaA-3">
          <mxGeometry relative="1" as="geometry" />
        </mxCell>
        <mxCell id="EWfqVEN3eDqRPe0bhWaA-5" value="&lt;span style=&quot;line-height: 115%;&quot;&gt;&lt;font style=&quot;font-size: 12px;&quot;&gt;costPerDay =&lt;/font&gt;&lt;/span&gt;&lt;div&gt;&lt;span style=&quot;line-height: 115%;&quot;&gt;&lt;font style=&quot;font-size: 12px;&quot;&gt;&amp;nbsp;rent / 30&lt;/font&gt;&lt;/span&gt;&lt;/div&gt;" style="rounded=0;whiteSpace=wrap;html=1;" vertex="1" parent="1">
          <mxGeometry x="40" y="290" width="120" height="60" as="geometry" />
        </mxCell>
        <mxCell id="EWfqVEN3eDqRPe0bhWaA-16" value="" style="edgeStyle=orthogonalEdgeStyle;rounded=0;orthogonalLoop=1;jettySize=auto;html=1;" edge="1" parent="1" source="EWfqVEN3eDqRPe0bhWaA-13" target="EWfqVEN3eDqRPe0bhWaA-5">
          <mxGeometry relative="1" as="geometry" />
        </mxCell>
        <mxCell id="EWfqVEN3eDqRPe0bhWaA-13" value="&lt;font style=&quot;font-size: 14px;&quot;&gt;&lt;b&gt;start&lt;/b&gt;&lt;/font&gt;&lt;div&gt;&amp;nbsp;&lt;/div&gt;&lt;div&gt;input rent&lt;br&gt;costPerDay = rent / 30&lt;br&gt;output rent&lt;/div&gt;&lt;div&gt;&amp;nbsp;&lt;br&gt;&lt;b&gt;&lt;font style=&quot;font-size: 14px;&quot;&gt;stop&lt;/font&gt;&lt;/b&gt;&lt;/div&gt;" style="text;whiteSpace=wrap;html=1;" vertex="1" parent="1">
          <mxGeometry x="260" y="265" width="150" height="110" as="geometry" />
        </mxCell>
        <mxCell id="EWfqVEN3eDqRPe0bhWaA-14" value="" style="endArrow=classic;html=1;rounded=0;exitX=0;exitY=0;exitDx=0;exitDy=0;entryX=1;entryY=0.5;entryDx=0;entryDy=0;" edge="1" parent="1" source="EWfqVEN3eDqRPe0bhWaA-13" target="EWfqVEN3eDqRPe0bhWaA-1">
          <mxGeometry width="50" height="50" relative="1" as="geometry">
            <mxPoint x="220" y="430" as="sourcePoint" />
            <mxPoint x="270" y="380" as="targetPoint" />
          </mxGeometry>
        </mxCell>
        <mxCell id="EWfqVEN3eDqRPe0bhWaA-15" value="" style="endArrow=classic;html=1;rounded=0;entryX=1;entryY=0.375;entryDx=0;entryDy=0;entryPerimeter=0;exitX=0;exitY=1;exitDx=0;exitDy=0;" edge="1" parent="1" source="EWfqVEN3eDqRPe0bhWaA-13" target="EWfqVEN3eDqRPe0bhWaA-2">
          <mxGeometry width="50" height="50" relative="1" as="geometry">
            <mxPoint x="220" y="430" as="sourcePoint" />
            <mxPoint x="270" y="380" as="targetPoint" />
          </mxGeometry>
        </mxCell>
        <mxCell id="EWfqVEN3eDqRPe0bhWaA-17" value="" style="endArrow=classic;html=1;rounded=0;entryX=1;entryY=0.25;entryDx=0;entryDy=0;exitX=0;exitY=0.336;exitDx=0;exitDy=0;exitPerimeter=0;" edge="1" parent="1" source="EWfqVEN3eDqRPe0bhWaA-13" target="EWfqVEN3eDqRPe0bhWaA-4">
          <mxGeometry width="50" height="50" relative="1" as="geometry">
            <mxPoint x="240" y="300" as="sourcePoint" />
            <mxPoint x="270" y="380" as="targetPoint" />
          </mxGeometry>
        </mxCell>
        <mxCell id="EWfqVEN3eDqRPe0bhWaA-18" value="" style="endArrow=classic;html=1;rounded=0;entryX=1;entryY=0.5;entryDx=0;entryDy=0;exitX=0;exitY=0.673;exitDx=0;exitDy=0;exitPerimeter=0;" edge="1" parent="1" source="EWfqVEN3eDqRPe0bhWaA-13" target="EWfqVEN3eDqRPe0bhWaA-3">
          <mxGeometry width="50" height="50" relative="1" as="geometry">
            <mxPoint x="220" y="430" as="sourcePoint" />
            <mxPoint x="270" y="380" as="targetPoint" />
          </mxGeometry>
        </mxCell>
      </root>
    </mxGraphModel>
  </diagram>
</mxfile>
